<svg width="35" height="35" viewBox="0 0 35 35" fill="none" xmlns="http://www.w3.org/2000/svg">
<g clip-path="url(#clip0_317_3167)">
<rect width="35" height="35" fill="white"/>
<path d="M17.0833 0.416748C7.6875 0.416748 0 8.10425 0 17.5001C0 26.8959 7.6875 34.5834 17.0833 34.5834C26.4792 34.5834 34.1667 26.8959 34.1667 17.5001C34.1667 8.10425 26.4792 0.416748 17.0833 0.416748ZM17.0833 31.1667C9.54958 31.1667 3.41667 25.0338 3.41667 17.5001C3.41667 9.96633 9.54958 3.83341 17.0833 3.83341C24.6171 3.83341 30.75 9.96633 30.75 17.5001C30.75 25.0338 24.6171 31.1667 17.0833 31.1667ZM24.9246 9.94925L13.6667 21.2072L9.24208 16.7997L6.83333 19.2084L13.6667 26.0417L27.3333 12.3751L24.9246 9.94925Z" fill="black"/>
</g>
<defs>
<clipPath id="clip0_317_3167">
<rect width="35" height="35" fill="white"/>
</clipPath>
</defs>
</svg>
